HIERARCHY
ROOT hip
{
	OFFSET 0.000000 0.000000 0.000000 
	CHANNELS 6 Xposition Yposition Zposition Xrotation Zrotation Yrotation
	JOINT abdomen
	{
		OFFSET 0.000000 3.402643 0.000000 
		CHANNELS 3 Xrotation Zrotation Yrotation
		JOINT chest
		{
			OFFSET 0.000000 8.438565 -0.680529 
			CHANNELS 3 Xrotation Zrotation Yrotation
			JOINT neck
			{
				OFFSET 0.000000 10.207942 -0.272212 
				CHANNELS 3 Xrotation Zrotation Yrotation
				JOINT head
				{
					OFFSET 0.000000 3.130431 0.000000 
					CHANNELS 3 Xrotation Zrotation Yrotation
					End Site
					{
						OFFSET 0.000000 3.130435 0.000000 
					}
				}
			}
			JOINT lCollar
			{
				OFFSET 3.470700 6.669187 -0.816635 
				CHANNELS 3 Yrotation Zrotation Xrotation
				JOINT lShldr
				{
					OFFSET 3.198488 0.000000 0.000000 
					CHANNELS 3 Zrotation Yrotation Xrotation
					JOINT lForeArm
					{
						OFFSET 10.139888 0.000000 0.000000 
						CHANNELS 3 Yrotation Zrotation Xrotation
						JOINT lHand
						{
							OFFSET 8.370511 0.000000 0.000000 
							CHANNELS 3 Zrotation Yrotation Xrotation
							End Site
							{
								OFFSET 4.083176 0.000000 0.000000 
							}
						}
					}
				}
			}
			JOINT rCollar
			{
				OFFSET -3.470700 6.669187 -0.816635 
				CHANNELS 3 Yrotation Zrotation Xrotation
				JOINT rShldr
				{
					OFFSET -3.198488 0.000000 0.000000 
					CHANNELS 3 Zrotation Yrotation Xrotation
					JOINT rForeArm
					{
						OFFSET -10.139888 0.000000 0.000000 
						CHANNELS 3 Yrotation Zrotation Xrotation
						JOINT rHand
						{
							OFFSET -8.370511 0.000000 0.000000 
							CHANNELS 3 Zrotation Yrotation Xrotation
							End Site
							{
								OFFSET -4.083176 0.000000 0.000000 
							}
						}
					}
				}
			}
		}
	}
	JOINT lThigh
	{
		OFFSET 5.308129 -1.633274 1.361059 
		CHANNELS 3 Xrotation Zrotation Yrotation
		JOINT lShin
		{
			OFFSET -2.041588 -20.007561 0.000000 
			CHANNELS 3 Xrotation Zrotation Yrotation
			JOINT lFoot
			{
				OFFSET 0.000000 -19.190928 -1.224953 
				CHANNELS 3 Xrotation Yrotation Zrotation
				End Site
				{
					OFFSET 0.000000 -2.449906 4.627600 
				}
			}
		}
	}
	JOINT rThigh
	{
		OFFSET -5.308129 -1.633274 1.361059 
		CHANNELS 3 Xrotation Zrotation Yrotation
		JOINT rShin
		{
			OFFSET 2.041588 -20.007561 0.000000 
			CHANNELS 3 Xrotation Zrotation Yrotation
			JOINT rFoot
			{
				OFFSET 0.000000 -19.190928 -1.224953 
				CHANNELS 3 Xrotation Yrotation Zrotation
				End Site
				{
					OFFSET 0.000000 -2.449906 4.627600 
				}
			}
		}
	}
}
MOTION
Frames: 16
Frame Time: 0.016667
-0.501329 38.811588 0.203517 2.668650 -2.546070 12.517800 -19.462400 2.397630 12.422100 17.132099 -3.558100 6.403780 6.626031 -3.825955 -24.719782 13.675600 10.313800 -5.547450 2.000000 -2.000000 0.000000 -82.646698 -21.002199 -143.229004 134.317001 -0.112510 0.114603 0.073013 -0.075005 -164.792999 -2.000000 2.000000 0.000000 109.114998 37.221100 -104.355003 -71.826698 0.257490 0.129903 -0.056152 0.023651 -145.397995 -40.451206 -7.217749 -15.579305 44.110100 1.948149 3.208395 -1.203676 -16.349277 -0.522944 4.186930 5.552368 -20.499870 49.219826 -2.572214 -3.177579 -8.957706 12.502412 1.697920 
-0.359500 38.911770 -0.035196 2.639510 -2.633930 10.981800 -19.352800 2.478900 12.046600 17.241501 -3.002790 6.218540 7.244447 -3.867199 -24.365608 13.905100 10.344900 -5.285820 2.000000 -2.000000 0.000000 -83.633598 -18.846800 -144.688995 134.296997 -0.112546 0.114638 0.073154 -0.075271 -164.899994 -2.000000 2.000000 0.000000 104.742996 31.492800 -110.204002 -72.236900 0.256559 0.130205 -0.056711 0.027134 -146.658005 -39.972279 -6.739582 -15.974532 43.138504 1.988459 3.170103 -1.060682 -15.344093 -0.406252 3.887828 5.108850 -19.548300 49.288792 -2.567950 -3.183959 -8.630013 12.829934 1.694639 
-0.191071 39.308887 -0.388878 2.834850 -2.555470 8.398580 -19.365000 2.426520 11.619300 17.046900 -2.680520 5.994240 7.816587 -3.505369 -23.592005 14.025800 10.389100 -4.756650 2.000000 -2.000000 0.000000 -84.064499 -16.536200 -146.675995 134.453003 -0.112260 0.114359 0.072771 -0.074546 -164.606995 -2.000000 2.000000 0.000000 100.292000 27.054800 -115.897003 -72.266197 0.256493 0.130226 -0.057041 0.028992 -147.332001 -39.069393 -5.735346 -15.591704 40.846443 2.118880 3.008937 0.131201 -14.011068 0.048091 3.501894 4.634023 -18.107077 48.571041 -2.608367 -3.147113 -8.953395 11.509023 1.567639 
-0.022645 39.706017 -0.742557 3.030160 -2.467250 5.806640 -19.375999 2.373910 11.191500 16.862101 -2.358380 5.777110 8.386530 -3.154522 -22.815783 14.156500 10.432800 -4.227270 2.000000 -2.000000 0.000000 -84.563797 -14.235500 -148.643005 134.610001 -0.111975 0.114079 0.072379 -0.073794 -164.304993 -2.000000 2.000000 0.000000 96.492104 22.275400 -120.986000 -72.305199 0.256404 0.130255 -0.057398 0.030872 -148.014999 -38.125099 -4.723042 -15.226115 38.486519 2.228164 2.864990 1.344319 -12.675527 0.451582 3.027795 4.149367 -16.681564 47.862591 -2.647338 -3.099592 -9.241744 10.201299 1.416282 
0.162096 40.301304 -1.190640 3.596880 -2.387870 3.169980 -19.503700 2.164750 10.480500 16.617901 -2.308990 5.402950 9.210189 -2.892896 -21.886681 14.336100 10.455600 -3.612350 2.000000 -2.000000 0.000000 -84.350899 -12.023700 -151.078995 134.697998 -0.111816 0.113921 0.070336 -0.069709 -162.673996 -2.000000 2.000000 0.000000 92.742500 19.294399 -126.494003 -73.603996 0.253441 0.131163 -0.058591 0.036434 -150.046997 -37.162586 -3.556833 -15.011111 34.855061 2.390097 2.629268 4.257156 -11.289856 1.125261 2.507145 3.859404 -15.269091 45.906219 -2.745216 -3.009339 -9.264848 8.434645 1.123546 
0.346835 40.896732 -1.638734 4.163460 -2.279130 0.527239 -19.638399 1.942460 9.764300 16.383499 -2.259620 5.037750 10.025764 -2.625790 -20.947096 14.526100 10.487400 -2.995520 2.000000 -2.000000 0.000000 -84.225700 -9.802280 -153.496002 134.794998 -0.111638 0.113745 0.068411 -0.065568 -161.042999 -2.000000 2.000000 0.000000 89.372002 16.011200 -131.692001 -74.902901 0.250458 0.132005 -0.059988 0.041975 -152.087997 -36.156654 -2.379877 -14.800892 31.308334 2.533427 2.383605 7.065136 -9.889009 1.723941 1.955290 3.594411 -13.864493 43.997799 -2.832555 -2.900629 -9.349319 6.638412 0.844125 
0.579473 41.521217 -2.119532 5.011880 -1.663540 -2.138280 -19.875999 1.675450 8.900320 16.032000 -2.132010 4.582620 11.033941 -2.956603 -19.384848 14.754400 10.210300 -2.360160 2.000000 -2.000000 0.000000 -83.847000 -7.650100 -156.283005 134.834000 -0.111567 0.113674 0.067836 -0.064268 -160.535004 -2.000000 2.000000 0.000000 86.548698 14.750400 -136.945007 -77.344299 0.244803 0.133402 -0.061199 0.046209 -153.660004 -35.602306 -1.764372 -15.187946 27.839907 2.624897 2.153363 10.862079 -6.306496 1.788331 1.257588 2.807810 -12.465255 41.595074 -2.962162 -2.771393 -9.750670 4.423618 0.483909 
0.812111 42.145828 -2.600316 5.830990 -1.010370 -4.790830 -20.118401 1.398510 8.040140 15.680600 -2.004440 4.135700 12.034873 -3.327937 -17.820072 14.982600 9.933390 -1.725260 2.000000 -2.000000 0.000000 -83.565804 -5.488210 -159.041000 134.863998 -0.111514 0.113622 0.067272 -0.062963 -160.026993 -2.000000 2.000000 0.000000 83.870598 13.246100 -142.091995 -79.795502 0.239070 0.134561 -0.062533 0.050433 -155.242004 -35.004272 -1.114615 -15.590846 24.317886 2.693023 1.902782 14.642814 -2.717261 1.621208 0.556453 2.051992 -11.044643 39.170631 -3.082689 -2.622995 -10.142977 2.203136 0.115854 
1.016273 42.593109 -3.127923 6.543010 -0.213444 -8.335060 -20.452999 1.502340 7.562100 15.037100 -1.516380 3.906230 12.804502 -3.812986 -16.136932 15.090500 9.622540 -1.170120 2.000000 -2.000000 0.000000 -83.225899 -3.717110 -161.817993 134.804993 -0.111620 0.113727 0.066846 -0.061955 -159.636993 -2.000000 2.000000 0.000000 81.992203 13.684100 -146.395996 -83.223198 0.230982 0.135769 -0.063928 0.054464 -156.764999 -35.002121 -0.298133 -15.241219 23.561071 2.679472 1.862938 14.796414 0.211227 1.065504 -0.305962 1.101524 -9.247995 37.444370 -3.170083 -2.517592 -11.784044 -0.440472 -0.427668 
1.220431 43.040245 -3.655543 7.217240 0.629737 -11.863500 -20.796400 1.605060 7.081380 14.393500 -1.038880 3.676610 13.564550 -4.328338 -14.461833 15.188300 9.302630 -0.629398 2.000000 -2.000000 0.000000 -82.973701 -1.926530 -164.576004 134.746002 -0.111727 0.113833 0.066427 -0.060945 -159.246002 -2.000000 2.000000 0.000000 80.083900 13.976100 -150.720993 -86.650902 0.222836 0.136491 -0.075195 0.058457 -158.289001 -35.019581 0.499571 -14.874849 22.877861 2.698557 1.799109 14.906907 3.140815 0.524531 -1.153834 0.195307 -7.453413 35.589714 -3.245143 -2.396768 -13.371851 -3.064338 -1.046017 
1.464116 43.248329 -4.254070 7.570810 1.452080 -14.924000 -20.844000 1.651600 6.646100 14.022900 -0.717963 3.461130 14.126602 -4.732666 -13.159353 15.317900 9.039410 -0.191086 2.000000 -2.000000 0.000000 -82.262199 -2.234700 -166.929001 134.268005 -0.112599 0.114691 0.065211 -0.057897 -158.074005 -2.000000 2.000000 0.000000 79.913498 15.605600 -154.669998 -91.367599 0.211819 0.117158 -0.075076 0.058151 -158.171997 -35.412304 1.079998 -12.390880 25.026030 2.621131 1.974386 14.014259 1.228084 1.128900 -2.170363 -0.902013 -6.684295 36.114586 -3.211124 -2.448796 -15.497208 -4.960953 -1.771512 
1.707788 43.456402 -4.852619 7.887270 2.302260 -17.981800 -20.890699 1.697930 6.210570 13.652200 -0.407182 3.242660 14.670776 -5.148804 -11.861158 15.447500 8.776370 0.255811 2.000000 -2.000000 0.000000 -81.540703 -2.503890 -169.291000 133.789001 -0.113479 0.115541 0.064058 -0.054824 -156.901993 -2.000000 2.000000 0.000000 79.625504 17.215900 -158.669998 -96.064903 0.201436 0.116484 -0.074957 0.067611 -158.054001 -35.787792 1.647792 -9.899730 27.236618 2.563266 2.130296 13.095047 -0.665375 1.662963 -3.210098 -1.979298 -5.896306 36.560863 -3.166653 -2.478153 -17.555952 -6.866501 -2.586774 
2.017819 43.402012 -5.447889 7.860780 2.766760 -20.624001 -20.693800 1.905250 5.983730 13.505700 -0.348904 3.158390 14.820083 -5.650765 -10.736194 15.476600 8.459250 0.480253 2.000000 -2.000000 0.000000 -80.965302 -4.566890 -170.332001 133.145004 -0.114675 0.116675 0.063688 -0.053795 -156.511993 -2.000000 2.000000 0.000000 80.674797 19.751301 -161.386002 -100.908997 0.190824 0.114901 -0.075678 0.059678 -158.757996 -36.401085 2.039671 -7.634115 31.506912 2.415159 2.456274 11.666073 -3.732836 2.181951 -4.213039 -2.961312 -5.535171 39.461197 -3.022392 -2.666468 -16.716240 -6.775320 -2.495634 
2.327851 43.347614 -6.043179 7.824940 3.221740 -23.258301 -20.506800 2.113240 5.759030 13.369000 -0.290667 3.073760 14.952218 -6.151838 -9.613785 15.496200 8.142510 0.712703 2.000000 -2.000000 0.000000 -80.350899 -6.610410 -171.391998 132.490997 -0.115902 0.117812 0.063325 -0.052763 -156.121002 -2.000000 2.000000 0.000000 81.616798 22.335600 -164.095001 -105.742996 0.180404 0.112434 -0.076432 0.061526 -159.470993 -37.017994 2.458394 -5.333817 35.799191 2.248302 2.742799 10.240431 -6.795084 2.621973 -5.215322 -3.933050 -5.156501 42.279617 -2.870874 -2.834915 -15.801346 -6.737085 -2.397993 
2.586914 43.032539 -6.543320 7.466650 3.679560 -25.338200 -20.173700 2.340390 5.529510 13.486300 -0.058148 2.966200 14.782034 -6.453778 -8.591053 15.349700 7.869030 0.861509 2.000000 -2.000000 0.000000 100.057999 -170.751007 8.020050 131.923996 -0.116975 0.118785 0.063433 -0.053073 -156.238007 -2.000000 2.000000 0.000000 82.371498 24.650801 -164.391998 -110.126999 0.171163 0.109443 -0.076307 0.061223 -159.352997 -37.630783 2.488420 -3.599573 40.332573 2.059171 3.038866 8.898851 -9.187917 2.685534 -5.303484 -4.809344 -4.176156 44.805931 -2.786870 -2.966991 -13.381400 -7.022480 -2.134274 
2.845987 42.717590 -7.043462 7.088630 4.109080 -27.419100 -19.830601 2.572150 5.312440 13.603500 0.184182 2.868160 14.602758 -6.752280 -7.567052 15.204000 7.604800 1.013550 2.000000 -2.000000 0.000000 100.496002 -168.123001 7.401210 131.348007 -0.118076 0.119764 0.063542 -0.053383 -156.354996 -2.000000 2.000000 0.000000 83.136299 26.965900 -164.664993 -114.501999 0.162197 0.105764 -0.076192 0.060945 -159.246002 -38.282822 2.536730 -1.851796 44.949806 1.847435 3.303087 7.513003 -11.576816 2.668769 -5.370368 -5.671754 -3.183750 47.291325 -2.703079 -3.084554 -10.955903 -7.293296 -1.865804 
